<?xml version="1.0" encoding="UTF-8" standalone="no"?>
<svg
   id="Layer_1"
   data-name="Layer 1"
   viewBox="0 0 111.93 128.81693"
   version="1.1"
   sodipodi:docname="logo.svg"
   width="111.93"
   height="128.81693"
   inkscape:version="1.3.2 (091e20ef0f, 2023-11-25)"
   xmlns:inkscape="http://www.inkscape.org/namespaces/inkscape"
   xmlns:sodipodi="http://sodipodi.sourceforge.net/DTD/sodipodi-0.dtd"
   xmlns="http://www.w3.org/2000/svg"
   xmlns:svg="http://www.w3.org/2000/svg"
   xmlns:rdf="http://www.w3.org/1999/02/22-rdf-syntax-ns#"
   xmlns:cc="http://creativecommons.org/ns#"
   xmlns:dc="http://purl.org/dc/elements/1.1/">
  <sodipodi:namedview
     id="namedview6"
     pagecolor="#ffffff"
     bordercolor="#000000"
     borderopacity="0.25"
     inkscape:showpageshadow="2"
     inkscape:pageopacity="0.0"
     inkscape:pagecheckerboard="0"
     inkscape:deskcolor="#d1d1d1"
     inkscape:zoom="6.5853018"
     inkscape:cx="188.2222"
     inkscape:cy="64.461738"
     inkscape:window-width="3840"
     inkscape:window-height="2123"
     inkscape:window-x="2256"
     inkscape:window-y="0"
     inkscape:window-maximized="1"
     inkscape:current-layer="Layer_1" />
  <defs
     id="defs1">
    <style
       id="style1">.cls-1{fill:#fff;}</style>
  </defs>
  <title
     id="title1">Saito Horizontal Secondary Logo White RGB</title>
  <path
     class="cls-1"
     d="M 111.21,31.656929 56.72,0.16692937 v 0 a 1.56,1.56 0 0 0 -0.39,-0.15 h -0.07 a 1.47,1.47 0 0 0 -0.82,0.11 H 55.37 55.31 L 0.83,31.576929 v 0 l -0.11,0.08 a 1.43,1.43 0 0 0 -0.72,1.24 v 63 a 1.42,1.42 0 0 0 0.72,1.23 l 54.54,31.490001 a 1.45,1.45 0 0 0 0.72,0.2 1.42,1.42 0 0 0 0.72,-0.2 l 54.54,-31.490001 a 1.41,1.41 0 0 0 0.69,-1 c 0,-0.05 0,-0.1 0,-0.15 0,-0.05 0,-0.08 0,-0.12 v -63 a 1.43,1.43 0 0 0 -0.72,-1.2 z M 54.52,124.89693 3.31,95.326929 l 26.08,-44.69 25.13,14.58 z M 2.84,35.226929 l 24.07,14 -24.07,41.22 z m 54.55,30 1.47,-0.83 25.58,-14.8 24.62,-14.2 v 59 H 57.39 Z m 26.85,-18.83 -20.94,-35.38 -3.33,-5.6199996 47.66,27.4999996 z M 55.44,3.3969294 81.72,47.836929 l -15.56,9 -10.21,5.9 -51.54,-29.91 z m 2,93.9999996 h 47.82 L 57.39,124.89693 Z"
     id="path1" />
  <metadata
     id="metadata6">
    <rdf:RDF>
      <cc:Work
         rdf:about="">
        <dc:title>Saito Horizontal Secondary Logo White RGB</dc:title>
      </cc:Work>
    </rdf:RDF>
  </metadata>
</svg>
